<mxfile host="app.diagrams.net" modified="2022-11-25T06:41:13.352Z" agent="5.0 (Windows NT 10.0; Win64; x64) AppleWebKit/537.36 (KHTML, like Gecko) Chrome/107.0.0.0 Safari/537.36" version="20.6.0" etag="eWU8hwmqB0Jfh3ODKRUu" type="github">
  <diagram id="XMD6FLEInBbVqXiVXaeL" name="Page-1">
    <mxGraphModel dx="501" dy="324" grid="1" gridSize="10" guides="1" tooltips="1" connect="1" arrows="1" fold="1" page="1" pageScale="1" pageWidth="850" pageHeight="1100" math="0" shadow="0">
      <root>
        <mxCell id="0" />
        <mxCell id="1" parent="0" />
        <mxCell id="NrxB4uvtwLJiLCm4nwCL-4" value="type&lt;br&gt;of" style="edgeStyle=orthogonalEdgeStyle;rounded=0;orthogonalLoop=1;jettySize=auto;html=1;exitX=0;exitY=0.5;exitDx=0;exitDy=0;" edge="1" parent="1" source="NrxB4uvtwLJiLCm4nwCL-1" target="NrxB4uvtwLJiLCm4nwCL-3">
          <mxGeometry relative="1" as="geometry" />
        </mxCell>
        <mxCell id="NrxB4uvtwLJiLCm4nwCL-9" value="started&lt;br&gt;on" style="edgeStyle=orthogonalEdgeStyle;rounded=0;orthogonalLoop=1;jettySize=auto;html=1;exitX=1;exitY=0.5;exitDx=0;exitDy=0;entryX=0;entryY=0.5;entryDx=0;entryDy=0;" edge="1" parent="1" source="NrxB4uvtwLJiLCm4nwCL-1" target="NrxB4uvtwLJiLCm4nwCL-5">
          <mxGeometry relative="1" as="geometry" />
        </mxCell>
        <mxCell id="NrxB4uvtwLJiLCm4nwCL-1" value="SF Music Tech Summit" style="rounded=0;whiteSpace=wrap;html=1;" vertex="1" parent="1">
          <mxGeometry x="231" y="200" width="80" height="40" as="geometry" />
        </mxCell>
        <mxCell id="NrxB4uvtwLJiLCm4nwCL-3" value="event" style="text;html=1;strokeColor=none;fillColor=none;align=center;verticalAlign=middle;whiteSpace=wrap;rounded=0;" vertex="1" parent="1">
          <mxGeometry x="157" y="205" width="30" height="30" as="geometry" />
        </mxCell>
        <mxCell id="NrxB4uvtwLJiLCm4nwCL-5" value="11/2014" style="rounded=0;whiteSpace=wrap;html=1;" vertex="1" parent="1">
          <mxGeometry x="365" y="200" width="48" height="40" as="geometry" />
        </mxCell>
      </root>
    </mxGraphModel>
  </diagram>
</mxfile>
